<svg xmlns="http://www.w3.org/2000/svg" width="24" height="24" viewBox="0 0 24 24" fill="currentColor" fill-rule="evenodd"><path d="M11.9 5.53c-.41.54.79.82-.07 1.27.16.13.28.23.4.33l-.13.15c-.19-.14-.38-.28-.57-.42.03-.03.06-.06.09-.09-.32-.03-.64-.06-1.02-.1.07.15.12.24.16.33-.8.3-2.58 2.06-2.87 2.87-.46-.51-1.21-.66-1.74-.22-.28.24-.55.81-.45 1.08.22.56.64.13.97-.04.07-.04.14-.06.29-.13-.05.25-.08.41-.08.4.2.3.34.48.45.67.1.17.18.48.29.5.25.03.6 0 .75-.16.3-.31.59-.27.88-.1.5.3 1.25.07 1.57.75.01.02.1-.01.13.01.19.14.51.28.53.45.05.55.46.57.82.69.47.16.95.32 1.3.44-.2.73-.34 1.27-.49 1.8-.04.14-.11.37-.2.39-.75.09-.76.6-.94 1.22-.18.6-.66 1.26-1.54 1.29.2.67.38 1.28.59 2.01-.28-.11-.56-.17-.79-.31-.88-.56-.67-1.58-.94-2.39-.2-.61-.07-1.32-.12-1.96-.01-.15-.12-.32-.23-.43-.36-.39-.76-.74-1.1-1.14-.43-.5-.39-.98.06-1.48.29-.32.27-.56-.13-.76-.32-.16-.61-.37-.93-.52-.42-.19-.87-.31-1.29-.52-.33-.16-.74-.34-.91-.62-.28-.49-.4-1.07-.59-1.61-.07.03-.14.05-.21.08.14.39.28.78.42 1.18-.06.03-.13.07-.19.1-.16-.25-.35-.49-.47-.76-.17-.39-.28-.8-.41-1.2-.89 1.97-1.04 3.95-.47 5.92 1.02 3.56 3.35 5.92 6.96 6.81 3.61.9 6.75-.13 9.35-2.79.17-.17.31-.29.13-.63-.24-.46-.22-1.05-.44-1.52-.23-.5-.31-.92.01-1.4.05-.07-.08-.27-.14-.41-.19-.51-.38-1.02-.66-1.75-.43 0-1.08-.04-1.72 0-.81.06-1.61-.77-1.49-1.6.04-.28.01-.57.01-.95.28-.35 1.03-.45 1.01-1.2 0-.08.19-.2.31-.22.7-.13 1.41-.23 2.1-.35.1.44 1.01 1.04 1.16.83.38-.54.64-.15.98-.02.24.09.53.06.99.11-.22-.38-.31-.66-.5-.83-.23-.21-.54-.34-.87-.53-.02.04-.13.2-.3.46-.15-.33-.22-.61-.39-.8-.16-.18-.44-.27-.67-.39l-.13.2c.2.18.41.36.68.61-.11.13-.24.28-.37.43-.04-.04-.08-.07-.12-.11.07-.09.15-.17.24-.28-.42-.17-.67-.78-1.24-.43-.23.14-.37.43-.61.54-.28.14-.62.2-.94.21-.08 0-.27-.48-.22-.53.18-.17.45-.24.69-.34.09-.04.2-.01.32-.02-.16-.63.59-1.25 1.7-1.33-.4-.29-.71-.51-1.08-.78.32-.22.57-.39.81-.56-3.25-3.19-8.85-3.12-11.74-.66.48.16.98.31 1.47.47.02-.04.04-.08.06-.13-.28-.17-.56-.33-.85-.5.67-.79 1.1.12 1.62.07-.12.12-.23.24-.34.36.18.03.37.11.53.08.18-.03.35-.16.52-.25-.02-.14-.05-.27-.07-.41h.53c.02.21.04.4.05.58.1-.12.19-.26.31-.35.13-.1.29-.2.45-.24.67-.16 1.2.18 1.56 1.02-.44.07-.86.14-1.28.2l-.03-.17c.15-.11.31-.22.48-.34-.6-.35-.93-.24-1.63.55-.46-.48-.79.02-1.14.19-.42.2-.33.44.01.67.24.16.45.35.68.53.22-.21.51-.45.75-.72.16-.18.26-.41.39-.62.24.15.47.29.8.5.02-.01.16-.05.52-.17M11.99 23.87C5.42 23.89.05 18.62 0 12.11-.05 5.5 5.29.13 11.91.11c6.65-.01 11.98 5.28 12 11.91.02 6.49-5.35 11.82-11.92 11.85"/></svg>
