<svg xmlns="http://www.w3.org/2000/svg" width="21" height="21" viewBox="0 0 21 21" fill="currentColor"><path d="M10.5 1.9c2.8 0 3.1 0 4.2.1 1 0 1.5.2 1.9.3.5.2.8.4 1.2.7.3.3.6.7.7 1.2.1.4.3.9.3 1.9 0 1.1.1 1.4.1 4.2s0 3.1-.1 4.2c0 1-.2 1.5-.3 1.9-.2.5-.4.8-.7 1.2-.3.3-.7.6-1.2.7-.4.1-.9.3-1.9.3-1.1 0-1.4.1-4.2.1s-3.1 0-4.2-.1c-1 0-1.5-.2-1.9-.3-.5-.2-.8-.4-1.2-.7-.3-.3-.6-.7-.7-1.2-.1-.4-.3-.9-.3-1.9 0-1.1-.1-1.4-.1-4.2s0-3.1.1-4.2c0-1 .2-1.5.3-1.9.2-.5.4-.8.7-1.2.3-.3.7-.6 1.2-.7.4-.1.9-.3 1.9-.3 1.1 0 1.4-.1 4.2-.1m0-1.9C7.6 0 7.3 0 6.2.1c-1.1 0-1.9.2-2.5.5-.7.3-1.3.6-1.9 1.2C1.2 2.4.8 3 .6 3.7c-.3.7-.4 1.4-.5 2.5C0 7.3 0 7.6 0 10.5s0 3.2.1 4.3c0 1.1.2 1.9.5 2.5.3.7.6 1.3 1.2 1.9.6.6 1.2 1 1.9 1.2.7.3 1.4.4 2.5.5 1.1 0 1.4.1 4.3.1s3.2 0 4.3-.1c1.1 0 1.9-.2 2.5-.5.7-.3 1.3-.6 1.9-1.2.6-.6 1-1.2 1.2-1.9.3-.7.4-1.4.5-2.5 0-1.1.1-1.4.1-4.3s0-3.2-.1-4.3c0-1.1-.2-1.9-.5-2.5-.3-.7-.6-1.3-1.2-1.9-.6-.6-1.2-1-1.9-1.2C16.6.3 15.9.2 14.8.1 13.7 0 13.4 0 10.5 0z"/><path d="M10.5 5.1a5.4 5.4 0 1 0 0 10.8 5.4 5.4 0 0 0 0-10.8zm0 8.9a3.5 3.5 0 1 1 0-7 3.5 3.5 0 0 1 0 7z"/><circle cx="16.1" cy="4.9" r="1.3"/></svg>